<!-- Paste your SVG pattern design here -->
<svg xmlns="http://www.w3.org/2000/svg" version="1.1" xmlns:xlink="http://www.w3.org/1999/xlink" xmlns:svgjs="http://svgjs.dev/svgjs" viewBox="0 0 800 800"><g stroke-width="2.5" stroke="hsl(0, 0%, 99%)" fill="none"><path d="M371.20950672047366 -15.236669884610023C389.0250639618446 -25.52063408405681 410.9749360381554 -25.52063408405681 428.79049327952634 -15.233790835282036L745.2095306188324 167.45052617129625C763.0250878602033 177.73449037074306 774.0000238983587 196.74485308321425 774.0000238983587 217.31566053143592V582.6842945445925C774.0000238983587 603.2551019928142 763.0250878602033 622.2654647052855 745.2095306188324 632.55230795406L428.79049327952634 815.2366249606384C410.9749360381554 825.5205891600851 389.0250639618446 825.5205891600851 371.20950672047366 815.2337459113105L54.79046938116767 632.5494289047322C36.9749121397968 622.2654647052855 25.999976101641323 603.2551019928142 25.999976101641323 582.6842945445925V217.31566053143592C25.999976101641323 196.74485308321425 36.9749121397968 177.73449037074306 54.79046938116767 167.44764712196832L371.20950672047366 -15.236669884610023Z " transform="rotate(44, 400, 400)" opacity="0.05"></path><path d="M372.5181655059067 3.637733217611242C389.5239246908516 -6.1787780636788625 410.4760753091484 -6.1787780636788625 427.4818344940933 3.640481401060697L729.5181883179764 178.02096581643082C746.5239475029213 187.83747709772098 757.0000228120697 205.9837324141708 757.0000228120697 225.61950316020057V574.3804719909408C757.0000228120697 594.0162427369706 746.5239475029213 612.1624980534204 729.5181883179764 621.98175751816L427.4818344940933 796.3622419335302C410.4760753091484 806.1787532148201 389.5239246908516 806.1787532148201 372.5181655059067 796.3594937500807L70.48181168202365 621.9790093347107C53.47605249707874 612.1624980534204 42.99997718793037 594.0162427369706 42.99997718793037 574.3804719909408V225.61950316020057C42.99997718793037 205.9837324141708 53.47605249707874 187.83747709772098 70.48181168202365 178.01821763298148L372.5181655059067 3.637733217611242Z " transform="rotate(42, 400, 400)" opacity="0.10"></path><path d="M373.8268242913398 22.512105802254382C390.0227854198587 13.16304743912093 409.9772145801413 13.16304743912093 426.1731757086602 22.514723119825305L713.8268460171204 188.59137494398732C730.0228071456393 197.94043330712077 740.0000217257806 215.2225812275492 740.0000217257806 233.92331527138708V566.0766189197112C740.0000217257806 584.7773529635491 730.0228071456393 602.0595008839774 713.8268460171204 611.4111765646818L426.1731757086602 777.4878283888438C409.9772145801413 786.8368867519771 390.0227854198587 786.8368867519771 373.8268242913398 777.4852110712729L86.17315398287968 611.4085592471109C69.97719285436074 602.0595008839774 59.999978274219416 584.7773529635491 59.999978274219416 566.0766189197112V233.92331527138708C59.999978274219416 215.2225812275492 69.97719285436074 197.94043330712077 86.17315398287968 188.5887576264165L373.8268242913398 22.512105802254382Z " transform="rotate(40, 400, 400)" opacity="0.14"></path><path d="M375.13548307677274 41.38653942205377C390.5216461488658 32.504933977077 409.4783538511342 32.504933977077 424.86451692322726 41.38902587374611L698.1355037162643 199.16184510670007C713.5216667883574 208.04345055167687 723.0000206394916 224.4614910760838 723.0000206394916 242.22718841772985V557.7728268836378C723.0000206394916 575.5385242252837 713.5216667883574 591.9565647496908 698.1355037162643 600.8406566463598L424.86451692322726 758.6134758793137C409.4783538511342 767.4950813242904 390.5216461488658 767.4950813242904 375.13548307677274 758.6109894276213L101.86449628373572 600.8381701946674C86.47833321164268 591.9565647496908 76.9999793605084 575.5385242252837 76.9999793605084 557.7728268836378V242.22718841772985C76.9999793605084 224.4614910760838 86.47833321164268 208.04345055167687 101.86449628373572 199.1593586550078L375.13548307677274 41.38653942205377Z " transform="rotate(38, 400, 400)" opacity="0.19"></path><path d="M376.4441418622057 60.26091200669691C391.0205068778728 51.84675947987682 408.9794931221272 51.84675947987682 423.5558581377943 60.263267592510715L682.4441614154083 209.73225423425657C697.0205264310754 218.14640676107672 706.0000195532025 233.70033988946227 706.0000195532025 250.53100052891637V549.468973812408C706.0000195532025 566.2996344518621 697.0205264310754 581.8535675802476 682.4441614154083 590.2700756928815L423.5558581377943 739.7390623346273C408.9794931221272 748.1532148614475 391.0205068778728 748.1532148614475 376.4441418622057 739.7367067488136L117.5558385845917 590.2677201070678C102.97947356892467 581.8535675802476 93.99998044679745 566.2996344518621 93.99998044679745 549.468973812408V250.53100052891637C93.99998044679745 233.70033988946227 102.97947356892467 218.14640676107672 117.5558385845917 209.72989864844283L376.4441418622057 60.26091200669691Z " transform="rotate(36, 400, 400)" opacity="0.23"></path><path d="M377.75280064763876 79.13531510891818C391.51936760687977 71.18861550025474 408.48063239312023 71.18861550025474 422.24719935236124 79.13753982885345L666.7528191145523 220.3026938793912C680.5193860737934 228.24939348805464 689.0000184669135 242.9392192204188 689.0000184669135 258.834843157681V541.1651512587564C689.0000184669135 557.0607751960187 680.5193860737934 571.7506009283828 666.7528191145523 579.6995252569816L422.24719935236124 720.8646793075192C408.48063239312023 728.8113789161827 391.51936760687977 728.8113789161827 377.75280064763876 720.862454587584L133.24718088544773 579.6973005370463C119.48061392620662 571.7506009283828 110.9999815330865 557.0607751960187 110.9999815330865 541.1651512587564V258.834843157681C110.9999815330865 242.9392192204188 119.48061392620662 228.24939348805464 133.24718088544773 220.30046915945604L377.75280064763876 79.13531510891818Z " transform="rotate(34, 400, 400)" opacity="0.28"></path><path d="M379.06145943307183 98.00971821113944C392.018228335887 90.53047152063269 407.981771664113 90.53047152063269 420.93854056692817 98.01181206519618L651.0614768136963 230.87313352452577C664.0182457165114 238.35238021503255 672.0000173806245 252.17809855137534 672.0000173806245 267.13868578644565V532.8613287051049C672.0000173806245 547.8219159401752 664.0182457165114 561.6476342765179 651.0614768136963 569.1289748210813L420.93854056692817 701.990296280411C407.981771664113 709.4695429709178 392.018228335887 709.4695429709178 379.06145943307183 701.9882024263544L148.93852318630377 569.1268809670246C135.98175428348856 561.6476342765179 127.99998261937549 547.8219159401752 127.99998261937549 532.8613287051049V267.13868578644565C127.99998261937549 252.17809855137534 135.98175428348856 238.35238021503255 148.93852318630377 230.87103967046914L379.06145943307183 98.00971821113944Z " transform="rotate(32, 400, 400)" opacity="0.32"></path><path d="M380.37013347729385 116.88409079578258C392.51710432368304 109.87229702343251 407.4829261938951 109.87229702343251 419.6298970402843 116.88605378396073L635.3701497716293 241.44354265208233C647.5171206180186 248.4553364244324 655.0000315531245 261.4169473647537 655.0000315531245 275.44249789763217V524.5574756338752C655.0000315531245 538.5830261667536 647.5171206180186 551.544637107075 635.3701497716293 558.5583938676032L419.6298970402843 683.1158827357247C407.4829261938951 690.1276765080747 392.51710432368304 690.1276765080747 380.37013347729385 683.1139197475466L164.6298807459488 558.556430879425C152.48290989955962 551.544637107075 144.9999989644536 538.5830261667536 144.9999989644536 524.5574756338752V275.44249789763217C144.9999989644536 261.4169473647537 152.48290989955962 248.4553364244324 164.6298807459488 241.44157966390418L380.37013347729385 116.88409079578258Z " transform="rotate(30, 400, 400)" opacity="0.37"></path><path d="M381.6787770039378 135.75849389800385C393.0159497939011 129.21415304381043 406.9840502060989 129.21415304381043 418.32122299606226 135.76032602030347L619.6787922119843 252.0139822972169C631.0159650019475 258.5583231514104 638.0000152080464 270.65582669571023 638.0000152080464 283.74634052639675V516.2536530802236C638.0000152080464 529.3441669109102 631.0159650019475 541.44167045521 619.6787922119843 547.987843431703L418.32122299606226 664.2414997086165C406.9840502060989 670.7858405628099 393.0159497939011 670.7858405628099 381.6787770039378 664.239667586317L180.32120778801578 547.9860113094035C168.9840349980525 541.44167045521 161.99998479195358 529.3441669109102 161.99998479195358 516.2536530802236V283.74634052639675C161.99998479195358 270.65582669571023 168.9840349980525 258.5583231514104 180.32120778801578 252.01215017491734L381.6787770039378 135.75849389800385Z " transform="rotate(28, 400, 400)" opacity="0.41"></path><path d="M382.9874357893708 154.63288174143605C393.51481052290814 148.5559938053993 406.48518947709186 148.5559938053993 417.0125642106292 154.63458299785714L603.9874499111282 262.58440668356246C614.5148246446655 268.66129461959923 621.0000141217574 279.8946907678777 621.0000141217574 292.05016789637233V507.9498152677829C621.0000141217574 520.1052923962776 614.5148246446655 531.3386885445561 603.9874499111282 537.4172777370138L417.0125642106292 645.3671014227191C406.48518947709186 651.443989358756 393.51481052290814 651.443989358756 382.9874357893708 645.3654001662981L196.01255008887176 537.4155764805928C185.4851753553345 531.3386885445561 178.99998587824263 520.1052923962776 178.99998587824263 507.9498152677829V292.05016789637233C178.99998587824263 279.8946907678777 185.4851753553345 268.66129461959923 196.01255008887176 262.58270542714143L382.9874357893708 154.63288174143605Z " transform="rotate(26, 400, 400)" opacity="0.46"></path><path d="M384.2960945748038 173.50730010244638C394.0136712519152 167.89786508456632 405.9863287480848 167.89786508456632 415.7039054251962 173.50887049298893L588.2961076102722 273.15486158748615C598.0136842873835 278.7642966053662 604.0000130354683 289.13358535762325 604.0000130354683 300.354025783926V499.6460079729204C604.0000130354683 510.86644839922315 598.0136842873835 521.2357371514802 588.2961076102722 526.8467425599029L415.7039054251962 626.4927336544C405.9863287480848 632.1021686722801 394.0136712519152 632.1021686722801 384.2960945748038 626.4911632638575L211.7038923897278 526.8451721693602C201.98631571261643 521.2357371514802 195.99998696453162 510.86644839922315 195.99998696453162 499.6460079729204V300.354025783926C195.99998696453162 289.13358535762325 201.98631571261643 278.7642966053662 211.7038923897278 273.15329119694366L384.2960945748038 173.50730010244638Z " transform="rotate(24, 400, 400)" opacity="0.50"></path><path d="M385.6047533602368 192.38170320466764C394.5125319809223 187.23972110494424 405.4874680190777 187.23972110494424 414.3952466397632 192.3831427293316L572.6047653094163 283.7253012326208C581.5125439301016 288.8672833323442 587.0000119491793 298.3724646885798 587.0000119491793 308.6578684126906V491.34218541926884C587.0000119491793 501.62758914337974 581.5125439301016 511.1327704996154 572.6047653094163 516.2761921240026L414.3952466397632 607.6183506272919C405.4874680190777 612.7603327270152 394.5125319809223 612.7603327270152 385.6047533602368 607.6169111026279L227.39523469058383 516.2747525993387C218.48745606989837 511.1327704996154 212.99998805082066 501.62758914337974 212.99998805082066 491.34218541926884V308.6578684126906C212.99998805082066 298.3724646885798 218.48745606989837 288.8672833323442 227.39523469058383 283.7238617079568L385.6047533602368 192.38170320466764Z " transform="rotate(22, 400, 400)" opacity="0.55"></path><path d="M386.9134121456699 211.25607578931078C395.01139270992934 206.58154660774406 404.98860729007066 206.58154660774406 413.0865878543301 211.25738444809622L556.9134230085601 294.2957103601773C565.0114035728196 298.970239541744 570.0000108628903 307.6113135019582 570.0000108628903 316.96168052387713V483.03833234803915C570.0000108628903 492.3886993699582 565.0114035728196 501.02977333017225 556.9134230085601 505.70561117052443L413.0865878543301 588.7439370826055C404.98860729007066 593.4184662641721 395.01139270992934 593.4184662641721 386.9134121456699 588.7426284238201L243.08657699143987 505.7043025117391C234.98859642718037 501.02977333017225 229.9999891371097 492.3886993699582 229.9999891371097 483.03833234803915V316.96168052387713C229.9999891371097 307.6113135019582 234.98859642718037 298.970239541744 243.08657699143987 294.29440170139185L386.9134121456699 211.25607578931078Z " transform="rotate(20, 400, 400)" opacity="0.59"></path><path d="M388.22207093110285 230.13047889153205C395.5102534389364 225.923402628122 404.4897465610636 225.923402628122 411.77792906889715 230.13165668443895L541.2220807077042 304.86615000531185C548.5102632155376 309.07322626872195 553.0000097766012 316.85019283291473 553.0000097766012 325.2655231526418V474.7345097943876C553.0000097766012 483.1498401141146 548.5102632155376 490.92680667830746 541.2220807077042 495.1350607346244L411.77792906889715 569.8695540554972C404.4897465610636 574.0766303189073 395.5102534389364 574.0766303189073 388.22207093110285 569.8683762625903L258.77791929229585 495.1338829417175C251.4897367844623 490.92680667830746 246.99999022339875 483.1498401141146 246.99999022339875 474.7345097943876V325.2655231526418C246.99999022339875 316.85019283291473 251.4897367844623 309.07322626872195 258.77791929229585 304.864972212405L388.22207093110285 230.13047889153205Z " transform="rotate(18, 400, 400)" opacity="0.64"></path><path d="M389.5307297165359 249.00486673496425C396.0091141679435 245.26524338971086 403.9908858320565 245.26524338971086 410.4692702834641 249.00591366199262L525.5307384068482 315.4365743916574C532.0091228582558 319.1761977369108 536.0000086903123 326.0890569050822 536.0000086903123 333.56935052261736V466.430671981947C536.0000086903123 473.91096559948215 532.0091228582558 480.8238247676535 525.5307384068482 484.5644950399352L410.4692702834641 550.9951557696C403.9908858320565 554.7347791148534 396.0091141679435 554.7347791148534 389.5307297165359 550.9941088425717L274.4692615931519 484.5634481129068C267.9908771417443 480.8238247676535 263.99999130968774 473.91096559948215 263.99999130968774 466.430671981947V333.56935052261736C263.99999130968774 326.0890569050822 267.9908771417443 319.1761977369108 274.4692615931519 315.4355274646291L389.5307297165359 249.00486673496425Z " transform="rotate(16, 400, 400)" opacity="0.68"></path><path d="M390.83938850196887 267.8792393196074C396.50797489695054 264.6070688925107 403.49202510304946 264.6070688925107 409.16061149803113 267.8801553807572L509.83939610599214 326.0069835192139C515.5079825009738 329.27915394631066 519.0000076040233 335.32790571846056 519.0000076040233 341.8731626338039V458.12681891071725C519.0000076040233 464.67207582606056 515.5079825009738 470.72082759821046 509.83939610599214 473.993914086457L409.16061149803113 532.1207422249138C403.49202510304946 535.3929126520104 396.50797489695054 535.3929126520104 390.83938850196887 532.119826163764L290.16060389400786 473.9929980253072C284.49201749902625 470.72082759821046 280.9999923959768 464.67207582606056 280.9999923959768 458.12681891071725V341.8731626338039C280.9999923959768 335.32790571846056 284.49201749902625 329.27915394631066 290.16060389400786 326.00606745806414L390.83938850196887 267.8792393196074Z " transform="rotate(14, 400, 400)" opacity="0.73"></path><path d="M392.14804728740194 286.7536500512232C397.0068356259576 283.94893254228316 402.9931643740424 283.94893254228316 407.85195271259806 286.7544352464945L494.1480538051361 336.5774307937431C499.00684214369176 339.3821483026831 502.00000651773416 344.5667926788116 502.00000651773416 350.177012891963V449.8230039864602C502.00000651773416 455.4332241996116 499.00684214369176 460.6178685757401 494.1480538051361 463.4233712799514L407.85195271259806 513.2463668272001C402.9931643740424 516.0510843361401 397.0068356259576 516.0510843361401 392.14804728740194 513.2455816319288L305.8519461948639 463.4225860846801C300.99315785630824 460.6178685757401 297.99999348226584 455.4332241996116 297.99999348226584 449.8230039864602V350.177012891963C297.99999348226584 344.5667926788116 300.99315785630824 339.3821483026831 305.8519461948639 336.5766455984718L392.14804728740194 286.7536500512232Z " transform="rotate(12, 400, 400)" opacity="0.77"></path><path d="M393.45670607283495 305.6280378946554C397.5056963549647 303.290773303872 402.4943036450353 303.290773303872 406.54329392716505 305.6286922240481L478.45671150428007 347.14785518008864C482.5057017864098 349.48511977087196 485.0000054314452 353.8056567509791 485.0000054314452 358.48084026193857V441.5191661740196C485.0000054314452 446.1943496849791 482.5057017864098 450.5148866650861 478.45671150428007 452.8528055852622L406.54329392716505 494.37196854130275C402.4943036450353 496.70923313208607 397.5056963549647 496.70923313208607 393.45670607283495 494.37131421191003L321.54328849571993 452.85215125586956C317.4942982135902 450.5148866650861 314.9999945685548 446.1943496849791 314.9999945685548 441.5191661740196V358.48084026193857C314.9999945685548 353.8056567509791 317.4942982135902 349.48511977087196 321.54328849571993 347.1472008506959L393.45670607283495 305.6280378946554Z " transform="rotate(10, 400, 400)" opacity="0.82"></path><path d="M394.76536485826796 324.5024333674821C398.00455708397175 322.6326216948554 401.99544291602825 322.6326216948554 405.23463514173204 324.5029568309963L462.7653692034241 357.71828719582874C466.0045614291279 359.5880988684554 468.0000043451561 363.0445284525411 468.0000043451561 366.7846752613087V433.2153359909735C468.0000043451561 436.95548279974105 466.0045614291279 440.41191238382675 462.7653692034241 442.2822475199676L405.23463514173204 475.4975778848C401.99544291602825 477.3673895574267 398.00455708397175 477.3673895574267 394.76536485826796 475.49705442128584L337.2346307965759 442.2817240564534C333.9954385708721 440.41191238382675 331.9999956548439 436.95548279974105 331.9999956548439 433.2153359909735V366.7846752613087C331.9999956548439 363.0445284525411 333.9954385708721 359.5880988684554 337.2346307965759 357.71776373231455L394.76536485826796 324.5024333674821Z " transform="rotate(8, 400, 400)" opacity="0.86"></path><path d="M396.07402364370097 343.3768364697034C398.5034178129788 341.9744777152334 401.4965821870212 341.9744777152334 403.92597635629903 343.37722906733904L447.07402690256805 368.28872684096336C449.5034210718459 369.6910855954334 451.0000032588671 372.28340778349764 451.0000032588671 375.0885178900733V424.9115134373219C451.0000032588671 427.7166235438976 449.5034210718459 430.30894573196184 447.07402690256805 431.7116970840675L403.92597635629903 456.62319485769183C401.4965821870212 458.02555361216184 398.5034178129788 458.02555361216184 396.07402364370097 456.6228022600562L352.92597309743195 431.71130448643186C350.4965789281541 430.30894573196184 348.9999967411329 427.7166235438976 348.9999967411329 424.9115134373219V375.0885178900733C348.9999967411329 372.28340778349764 350.4965789281541 369.6910855954334 352.92597309743195 368.2883342433277L396.07402364370097 343.3768364697034Z " transform="rotate(6, 400, 400)" opacity="0.91"></path><path d="M397.382682429134 362.25121668374106C399.00227854198585 361.31631084742776 400.99772145801415 361.31631084742776 402.617317570866 362.2514784154981L431.38268460171207 378.85914359791434C433.00228071456394 379.7940494342277 434.0000021725781 381.5222642262705 434.0000021725781 383.3923376306543V416.60766799548674C434.0000021725781 418.4777413998705 433.00228071456394 420.2059561919134 431.38268460171207 421.1411237599838L402.617317570866 437.7487889424C400.99772145801415 438.68369477871335 399.00227854198585 438.68369477871335 397.382682429134 437.7485272106429L368.617315398288 421.1408620282267C366.99771928543606 420.2059561919134 365.99999782742196 418.4777413998705 365.99999782742196 416.60766799548674V383.3923376306543C365.99999782742196 381.5222642262705 366.99771928543606 379.7940494342277 368.617315398288 378.8588818661573L397.382682429134 362.25121668374106Z " transform="rotate(4, 400, 400)" opacity="0.95"></path><path d="M398.691341214567 381.12560452717327C399.50113927099295 380.6581516090166 400.49886072900705 380.6581516090166 401.308658785433 381.1257353930518L415.69134230085604 389.4295679842599C416.50114035728194 389.8970209024166 417.00000108628905 390.761128298438 417.00000108628905 391.6961650006299V408.3038301830461C417.00000108628905 409.238866885238 416.50114035728194 410.10297428125943 415.69134230085604 410.5705580652946L401.308658785433 418.8743906565027C400.49886072900705 419.34184357465944 399.50113927099295 419.34184357465944 398.691341214567 418.8742597906242L384.30865769914396 410.5704271994161C383.49885964271806 410.10297428125943 382.99999891371095 409.238866885238 382.99999891371095 408.3038301830461V391.6961650006299C382.99999891371095 390.761128298438 383.49885964271806 389.8970209024166 384.30865769914396 389.4294371183814L398.691341214567 381.12560452717327Z " transform="rotate(2, 400, 400)" opacity="1.00"></path></g></svg>
