<!-- Paste your SVG pattern design here -->
<svg xmlns="http://www.w3.org/2000/svg" version="1.1" xmlns:xlink="http://www.w3.org/1999/xlink" xmlns:svgjs="http://svgjs.dev/svgjs" viewBox="0 0 800 800"><g stroke-width="7.5" stroke="hsl(0, 0%, 99%)" fill="none"><path d="M339.03189658453255 -479.3246274271176C376.75895897802366 -501.1024339671226 423.24104102197634 -501.1024339671226 460.96810341546734 -479.318530616776L1131.0319471928215 -92.45762401461025C1168.7590095863127 -70.67981747460533 1192.000050608289 -30.422578789371983 1192.000050608289 13.139131100979625V786.860944305311C1192.000050608289 830.4226541956627 1168.7590095863127 870.679892880896 1131.0319471928215 892.4637962312424L460.96810341546734 1279.324702833408C423.24104102197634 1301.1025093734133 376.75895897802366 1301.1025093734133 339.03189658453255 1279.3186060230669L-331.03194719282146 892.457699420901C-368.7590095863127 870.679892880896 -392.000050608289 830.4226541956627 -392.000050608289 786.860944305311V13.139131100979625C-392.000050608289 -30.422578789371983 -368.7590095863127 -70.67981747460533 -331.03194719282146 -92.46372082495168L339.03189658453255 -479.3246274271176Z " transform="rotate(44, 400, 400)" opacity="0.05"></path><path d="M341.8031740125083 -439.3553615530778C377.81536993356815 -460.14326779580983 422.18463006643196 -460.14326779580983 458.1968259874916 -439.349541870479L1097.8032223204204 -70.07322193204811C1133.8154182414803 -49.28531568931612 1156.0000483079123 -10.857951489775246 1156.0000483079123 30.723680678287792V769.2763205551496C1156.0000483079123 810.8579527232125 1133.8154182414803 849.2853169227533 1097.8032223204204 870.0790428480841L458.1968259874916 1239.355362786515C422.18463006643196 1260.1432690292472 377.81536993356815 1260.1432690292472 341.8031740125083 1239.3495431039164L-297.80322232042045 870.0732231654856C-333.81541824148024 849.2853169227533 -356.00004830791215 810.8579527232125 -356.00004830791215 769.2763205551496V30.723680678287792C-356.00004830791215 -10.857951489775246 -333.81541824148024 -49.28531568931612 -297.80322232042045 -70.07904161464671L341.8031740125083 -439.3553615530778Z " transform="rotate(42, 400, 400)" opacity="0.10"></path><path d="M344.57445144048404 -399.38608042024896C378.8717808891124 -419.184086365708 421.1282191108876 -419.184086365708 455.42554855951585 -399.38053786539297L1064.5744974480197 -47.68880459069692C1098.871826896648 -27.890798645237737 1120.0000460075355 8.706691068610553 1120.0000460075355 48.30824551438491V751.6917120637772C1120.0000460075355 791.2932665095516 1098.871826896648 827.8907562233999 1064.5744974480197 847.6943047237148L455.42554855951585 1199.386037998411C421.1282191108876 1219.1840439438702 378.8717808891124 1219.1840439438702 344.57445144048404 1199.3804954435552L-264.5744974480195 847.6887621688591C-298.87182689664786 827.8907562233999 -320.0000460075354 791.2932665095516 -320.0000460075354 751.6917120637772V48.30824551438491C-320.0000460075354 8.706691068610553 -298.87182689664786 -27.890798645237737 -264.5744974480195 -47.69434714555268L344.57445144048404 -399.38608042024896Z " transform="rotate(40, 400, 400)" opacity="0.14"></path><path d="M347.3456983508818 -359.4167382522638C379.92816132707867 -378.22484390044997 420.0717776377651 -378.22484390044997 452.654240613962 -359.41147282515067L1031.3457420580405 -25.30432621418936C1063.9282050342374 -6.496220566003217 1084.0000131895806 28.271394662152716 1084.0000131895806 65.89287138563827V734.1071646075609C1084.0000131895806 771.7286413310467 1063.9282050342374 806.4962565592025 1031.3457420580405 825.3096276345018L452.654240613962 1159.416774245463C420.0717776377651 1178.2248798936491 379.92816132707867 1178.2248798936491 347.3456983508818 1159.41150881835L-231.34580309319665 825.3043622073887C-263.9282660693936 806.4962565592025 -284.00007422473675 771.7286413310467 -284.00007422473675 734.1071646075609V65.89287138563827C-284.00007422473675 28.271394662152716 -263.9282660693936 -6.496220566003217 -231.34580309319665 -25.309591641302404L347.3456983508818 -359.4167382522638Z " transform="rotate(38, 400, 400)" opacity="0.19"></path><path d="M350.1169757788575 -319.447457119435C380.98457228262316 -337.26566247034816 419.0153666822206 -337.26566247034816 449.8829631859862 -319.4424688200646L998.1170171856393 -2.9199088728380502C1028.9846136894048 14.898296478075054 1048.0000108892036 47.83603722053863 1048.0000108892036 83.47743622173562V716.5225561161888C1048.0000108892036 752.1639551173855 1028.9846136894048 785.1016958598489 998.1170171856393 802.9248895101323L449.8829631859862 1119.447449457359C419.0153666822206 1137.265654808272 380.98457228262316 1137.265654808272 350.1169757788575 1119.4424611579889L-198.1170782207957 802.9199012107622C-228.98467472456122 785.1016958598489 -248.00007192436 752.1639551173855 -248.00007192436 716.5225561161888V83.47743622173562C-248.00007192436 47.83603722053863 -228.98467472456122 14.898296478075054 -198.1170782207957 -2.924897172208375L350.1169757788575 -319.447457119435Z " transform="rotate(36, 400, 400)" opacity="0.23"></path><path d="M352.8882532068334 -279.4781759866061C382.04098323816754 -296.30648104024635 417.9589557266762 -296.30648104024635 447.11168575801037 -279.47346481497857L964.8882923132385 19.464508468513145C994.0410223445726 36.29281352215344 1012.0000085888269 67.40067977892454 1012.0000085888269 101.06200105783273V698.9379476248159C1012.0000085888269 732.5992689037241 994.0410223445726 763.7071351604952 964.8882923132385 780.540151385763L447.11168575801037 1079.4781246692546C417.9589557266762 1096.306429722895 382.04098323816754 1096.306429722895 352.8882532068334 1079.4734134976272L-164.88835334839473 780.5354402141356C-194.04108337972883 763.7071351604952 -212.00006962398322 732.5992689037241 -212.00006962398322 698.9379476248159V101.06200105783273C-212.00006962398322 67.40067977892454 -194.04108337972883 36.29281352215344 -164.88835334839473 19.459797296885654L352.8882532068334 -279.4781759866061Z " transform="rotate(34, 400, 400)" opacity="0.28"></path><path d="M355.65953063480913 -239.50883381862104C383.0973941937119 -255.34723857498832 416.90254477113183 -255.34723857498832 444.3404083300346 -239.50439977473627L931.6595674408375 41.84898684502059C959.0974309997403 57.687391601387844 976.0000062884501 86.96538337246659 976.0000062884501 118.6466269290861V681.3534001685998C976.0000062884501 713.0346437252192 959.0974309997403 742.3126354962978 931.6595674408375 758.15547429655L444.3404083300346 1039.5088609163067C416.90254477113183 1055.3472656726742 383.0973941937119 1055.3472656726742 355.65953063480913 1039.504426872422L-131.6596284759937 758.1510402526651C-159.09749203489645 742.3126354962978 -176.00006732360646 713.0346437252192 -176.00006732360646 681.3534001685998V118.6466269290861C-176.00006732360646 86.96538337246659 -159.09749203489645 57.687391601387844 -131.6596284759937 41.84455280113593L355.65953063480913 -239.50883381862104Z " transform="rotate(32, 400, 400)" opacity="0.32"></path><path d="M358.430808062785 -199.53955268579216C384.1538051492562 -214.38805714488652 415.84613381558756 -214.38805714488652 441.56913090205876 -199.53539576965022L898.4308425684364 64.2334041863719C924.1538396549079 79.08190864546623 940.0000039880736 106.5300259308525 940.0000039880736 136.2311917651832V663.7687916772275C940.0000039880736 693.4699575115583 924.1538396549079 720.9180747969444 898.4308425684364 735.7707361721805L441.56913090205876 999.5395361282026C415.84613381558756 1014.3880405872969 384.1538051492562 1014.3880405872969 358.430808062785 999.5353792120609L-98.43090360359275 735.7665792560388C-124.153900690064 720.9180747969444 -140.0000650232297 693.4699575115583 -140.0000650232297 663.7687916772275V136.2311917651832C-140.0000650232297 106.5300259308525 -124.153900690064 79.08190864546623 -98.43090360359275 64.22924727022996L358.430808062785 -199.53955268579216Z " transform="rotate(30, 400, 400)" opacity="0.37"></path><path d="M361.20208549076074 -159.57021051780708C385.21021610480057 -173.42881467962846 414.7897228600432 -173.42881467962846 438.797853474083 -159.56633072940792L865.2021176960357 86.6178825628794C889.2102483100753 100.47648672470075 904.0000016876966 126.09472952439467 904.0000016876966 153.8158176364367V646.1842442210113C904.0000016876966 673.9053323330531 889.2102483100753 699.5235751327473 865.2021176960357 713.3860590829677L438.797853474083 959.5702723752547C414.7897228600432 973.4288765370761 385.21021610480057 973.4288765370761 361.20208549076074 959.5663925868557L-65.2021787311918 713.3821792945685C-89.21030934523162 699.5235751327473 -104.00006272285293 673.9053323330531 -104.00006272285293 646.1842442210113V153.8158176364367C-104.00006272285293 126.09472952439467 -89.21030934523162 100.47648672470075 -65.2021787311918 86.61400277448035L361.20208549076074 -159.57021051780708Z " transform="rotate(28, 400, 400)" opacity="0.41"></path><path d="M363.9733629187365 -119.6009293849782C386.26662706034494 -132.46963324952665 413.7333119044988 -132.46963324952665 436.02657604610727 -119.59732672432182L831.9733928236346 109.00229990423065C854.2666569652429 121.87100376877908 867.9999993873198 145.65937208278046 867.9999993873198 171.40038247253392V628.5996357296389C867.9999993873198 654.3406461193922 854.2666569652429 678.1290144333936 831.9733928236346 691.0013209585982L436.02657604610727 919.6009475871506C413.7333119044988 932.4696514516993 386.26662706034494 932.4696514516993 363.9733629187365 919.5973449264945L-31.973453858790776 690.9977182979419C-54.26671800039924 678.1290144333936 -68.00006042247611 654.3406461193922 -68.00006042247611 628.5996357296389V171.40038247253392C-68.00006042247611 145.65937208278046 -54.26671800039924 121.87100376877908 -31.973453858790776 108.99869724357438L363.9733629187365 -119.6009293849782Z " transform="rotate(26, 400, 400)" opacity="0.46"></path><path d="M366.74464034671234 -79.63166351093844C387.3230380158893 -91.5104670782139 412.6769009489544 -91.5104670782139 433.2552986181314 -79.62833797802483L798.7446679512336 131.3867019867928C819.3230656204105 143.26550555406828 831.999997086943 165.22399938237731 831.999997086943 188.98493204984197V611.0150119794773C831.999997086943 634.7759446469419 819.3230656204105 656.7344384752508 798.7446679512336 668.6165675754398L433.2552986181314 879.6316075402574C412.6769009489544 891.510411107533 387.3230380158893 891.510411107533 366.74464034671234 879.6282820073438L1.2552710136101837 668.6132420425263C-19.323126655566853 656.7344384752508 -32.00005812209935 634.7759446469419 -32.00005812209935 611.0150119794773V188.98493204984197C-32.00005812209935 165.22399938237731 -19.323126655566853 143.26550555406828 1.2552710136101837 131.38337645387935L366.74464034671234 -79.63166351093844Z " transform="rotate(24, 400, 400)" opacity="0.50"></path><path d="M369.5159177746882 -39.662321342953305C388.3794489714337 -50.55122461295582 411.62048999341005 -50.55122461295582 430.48402119015554 -39.65927293778253L765.5159430788326 153.77118036330035C784.3794742755781 164.6600836333028 795.9999947865663 184.78870297591948 795.9999947865663 206.56955792109528V593.430464523261C795.9999947865663 615.2113194684368 784.3794742755781 635.3399388110535 765.5159430788326 646.2318904862267L430.48402119015554 839.6623437873095C411.62048999341005 850.5512470573121 388.3794489714337 850.5512470573121 369.5159177746882 839.6592953821389L34.483995886011144 646.228842081056C15.620464689265532 635.3399388110535 3.999944178277417 615.2113194684368 3.999944178277417 593.430464523261V206.56955792109528C3.999944178277417 184.78870297591948 15.620464689265532 164.6600836333028 34.483995886011144 153.76813195812963L369.5159177746882 -39.662321342953305Z " transform="rotate(22, 400, 400)" opacity="0.55"></path><path d="M372.2872257202421 0.30695978987552053C389.4358904445562 -9.592043182854013 410.5641095554438 -9.592043182854013 427.7127742797579 0.30973106730351674L732.2872487240098 176.15559770465154C749.435913448324 186.05460067738113 760.0000230037678 204.35334553430528 760.0000230037678 224.15412275719245V575.8458560318886C760.0000230037678 595.6466332547758 749.435913448324 613.9453781116999 732.2872487240098 623.8471523618574L427.7127742797579 799.6930189992054C410.5641095554438 809.5920219719351 389.4358904445562 809.5920219719351 372.2872257202421 799.6902477217777L67.71275127599023 623.8443810844295C50.56408655167604 613.9453781116999 39.999976996232306 595.6466332547758 39.999976996232306 575.8458560318886V224.15412275719245C39.999976996232306 204.35334553430528 50.56408655167604 186.05460067738113 67.71275127599023 176.15282642722366L372.2872257202421 0.30695978987552053Z " transform="rotate(20, 400, 400)" opacity="0.59"></path><path d="M375.0585031482178 40.27627144028253C390.4923014001006 31.36716876482592 409.5076985998994 31.36716876482592 424.9414968517822 40.27876558996769L699.0585238516087 198.54004556358097C714.4923221034915 207.44914823903753 724.0000207033909 223.9180186102693 724.0000207033909 241.7387181108678V558.2612780580944C724.0000207033909 576.0819775586928 714.4923221034915 592.5508479299244 699.0585238516087 601.4624447550661L424.9414968517822 759.7237247286795C409.5076985998994 768.632827404136 390.4923014001006 768.632827404136 375.0585031482178 759.7212305789944L100.94147614839125 601.4599506053811C85.50767789650848 592.5508479299244 75.99997929660907 576.0819775586928 75.99997929660907 558.2612780580944V241.7387181108678C75.99997929660907 223.9180186102693 85.50767789650848 207.44914823903753 100.94147614839125 198.5375514138958L375.0585031482178 40.27627144028253Z " transform="rotate(18, 400, 400)" opacity="0.64"></path><path d="M377.82978057619357 80.24558309068948C391.54871235564497 72.32638071250585 408.45128764435503 72.32638071250585 422.17021942380643 80.24780011263186L665.8297989792078 220.9244934225103C679.5487307586592 228.84369580069392 688.0000184030141 243.4826916862333 688.0000184030141 259.32331346454305V540.6767000842999C688.0000184030141 556.5173218626096 679.5487307586592 571.1563177481489 665.8297989792078 579.077737148275L422.17021942380643 719.7544304581534C408.45128764435503 727.6736328363371 391.54871235564497 727.6736328363371 377.82978057619357 719.752213436211L134.1702010207922 579.0755201263325C120.45126924134087 571.1563177481489 111.99998159698583 556.5173218626096 111.99998159698583 540.6767000842999V259.32331346454305C111.99998159698583 243.4826916862333 120.45126924134087 228.84369580069392 134.1702010207922 220.92227640056797L377.82978057619357 80.24558309068948Z " transform="rotate(16, 400, 400)" opacity="0.68"></path><path d="M380.6010732629585 120.21486422351836C392.6051385699784 113.28556214260766 407.3948919475997 113.28556214260766 419.39895725461963 120.21680411771791L632.601089365596 243.3089107638616C644.6051546726158 250.23821284477225 652.0000313614264 263.0473342446192 652.0000313614264 276.9078783006402V523.0920915929275C652.0000313614264 536.9526356489484 644.6051546726158 549.7617570487955 632.601089365596 556.6929990239057L419.39895725461963 679.7851056700492C407.3948919475997 686.7144077509599 392.6051385699784 686.7144077509599 380.6010732629585 679.7831657758497L167.39894115198223 556.6910591297061C155.3948758449623 549.7617570487955 147.99999915615166 536.9526356489484 147.99999915615166 523.0920915929275V276.9078783006402C147.99999915615166 263.0473342446192 155.3948758449623 250.23821284477225 167.39894115198223 243.30697086966205L380.6010732629585 120.21486422351836Z " transform="rotate(14, 400, 400)" opacity="0.73"></path><path d="M383.37233543214523 160.18416061513625C393.6615342667337 154.24475883149853 406.3384657332663 154.24475883149853 416.62766456785477 160.18582338159302L599.3723492344059 265.69334336400186C609.6615480689943 271.63274514763964 616.0000138022606 282.6119920617941 616.0000138022606 294.49245839552646V505.50749836034413C616.0000138022606 517.3879646940763 609.6615480689943 528.367211608231 599.3723492344059 534.3082761583254L416.62766456785477 639.8157961407342C406.3384657332663 645.7551979243719 393.6615342667337 645.7551979243719 383.37233543214523 639.8141333742774L200.62765076559413 534.3066133918686C190.33845193100564 528.367211608231 183.99998619773936 517.3879646940763 183.99998619773936 505.50749836034413V294.49245839552646C183.99998619773936 282.6119920617941 190.33845193100564 271.63274514763964 200.62765076559413 265.69168059754514L383.37233543214523 160.18416061513625Z " transform="rotate(12, 400, 400)" opacity="0.77"></path><path d="M386.14361286012104 200.15348752433232C394.7179452222781 195.20398603796752 405.2820547777219 195.20398603796752 413.85638713987896 200.15487316304626L566.1436243620049 288.0778064817203C574.7179567241619 293.0273079680851 580.0000115018838 302.17668039654717 580.0000115018838 312.07706900799076V487.92293564533884C580.0000115018838 497.82332425678237 574.7179567241619 506.9726966852445 566.1436243620049 511.9235838103232L413.85638713987896 599.8465171289972C405.2820547777219 604.7960186153621 394.7179452222781 604.7960186153621 386.14361286012104 599.8451314902834L233.85637563799514 511.92219817160935C225.28204327583802 506.9726966852445 219.99998849811612 497.82332425678237 219.99998849811612 487.92293564533884V312.07706900799076C219.99998849811612 302.17668039654717 225.28204327583802 293.0273079680851 233.85637563799514 288.07642084300636L386.14361286012104 200.15348752433232Z " transform="rotate(10, 400, 400)" opacity="0.82"></path><path d="M388.9148902880968 240.12279917473927C395.7743561778225 236.16319798564746 404.2256438221775 236.16319798564746 411.0851097119032 240.1239076857105L532.9148994896038 310.4622543406497C539.7743653793295 314.4218555297415 544.000009201507 321.74135347251115 544.000009201507 329.66166436166606V470.3383576715445C544.000009201507 478.25866856069933 539.7743653793295 485.578166503469 532.9148994896038 489.538876203532L411.0851097119032 559.8772228584712C404.2256438221775 563.8368240475631 395.7743561778225 563.8368240475631 388.9148902880968 559.8761143475001L267.0851005103961 489.5377676925608C260.2256346206704 485.578166503469 255.99999079849295 478.25866856069933 255.99999079849295 470.3383576715445V329.66166436166606C255.99999079849295 321.74135347251115 260.2256346206704 314.4218555297415 267.0851005103961 310.4611458296785L388.9148902880968 240.12279917473927Z " transform="rotate(8, 400, 400)" opacity="0.86"></path><path d="M391.68616771607265 280.0920955663572C396.83076713336686 277.1223946745383 403.16923286663314 277.1223946745383 408.31383228392735 280.0929269495856L499.68617461720294 332.84668694079C504.83077403449715 335.8163878326089 508.0000069011303 341.3060112896861 508.0000069011303 347.2462444565523V452.7537644389611C508.0000069011303 458.69399760582724 504.83077403449715 464.18362106290454 499.68617461720294 467.15415333795175L408.31383228392735 519.9079133291561C403.16923286663314 522.877614220975 396.83076713336686 522.877614220975 391.68616771607265 519.9070819459278L300.31382538279706 467.15332195472337C295.16922596550285 464.18362106290454 291.9999930988697 458.69399760582724 291.9999930988697 452.7537644389611V347.2462444565523C291.9999930988697 341.3060112896861 295.16922596550285 335.8163878326089 300.31382538279706 332.8458555575616L391.68616771607265 280.0920955663572Z " transform="rotate(6, 400, 400)" opacity="0.91"></path><path d="M394.4574451440484 320.06139958736964C397.88717808891124 318.08159899282373 402.11282191108876 318.08159899282373 405.5425548559516 320.06195384285525L466.4574497448019 355.23112717032484C469.88718268966477 357.21092776487075 472.0000046007535 360.8706767362556 472.0000046007535 364.830832180833V435.16917883577224C472.0000046007535 439.12933428034967 469.88718268966477 442.7890832517345 466.4574497448019 444.769438101766L405.5425548559516 479.9386114292356C402.11282191108876 481.91841202378157 397.88717808891124 481.91841202378157 394.4574451440484 479.93805717375005L333.542550255198 444.7688838462804C330.11281731033523 442.7890832517345 327.9999953992465 439.12933428034967 327.9999953992465 435.16917883577224V364.830832180833C327.9999953992465 360.8706767362556 330.11281731033523 357.21092776487075 333.542550255198 355.2305729148393L394.4574451440484 320.06139958736964Z " transform="rotate(4, 400, 400)" opacity="0.95"></path><path d="M397.2287225720242 360.0306959789875C398.9435890444556 359.0407956817146 401.0564109555444 359.0407956817146 402.7712774279758 360.03097310673036L433.22872487240096 377.61555977046515C434.9435913448324 378.60546006773814 436.00000230037676 380.43533455343055 436.00000230037676 382.41541227571923V417.5845856031889C436.00000230037676 419.56466332547757 434.9435913448324 421.39453781117 433.22872487240096 422.38471523618574L402.7712774279758 439.96930189992054C401.0564109555444 440.9592021971935 398.9435890444556 440.9592021971935 397.2287225720242 439.96902477217776L366.77127512759904 422.38443810844296C365.0564086551676 421.39453781117 363.99999769962324 419.56466332547757 363.99999769962324 417.5845856031889V382.41541227571923C363.99999769962324 380.43533455343055 365.0564086551676 378.60546006773814 366.77127512759904 377.6152826427224L397.2287225720242 360.0306959789875Z " transform="rotate(2, 400, 400)" opacity="1.00"></path></g></svg>
